
        <svg xmlns="http://www.w3.org/2000/svg" xmlns:xlink="http://www.w3.org/1999/xlink" version="1.1" width="3162.1621621621625" 
        height="972.972972972973" viewBox="0 0 3162.1621621621625 972.972972972973">
			
			<g transform="scale(8.108108108108109) translate(10, 10)">
				<defs id="SvgjsDefs7999"></defs><g id="SvgjsG8000" featureKey="phAakL-0" transform="matrix(1.9230769230769231,0,0,1.9230769230769231,-11.538461538461538,-11.538461538461538)" fill="#a80038"><metadata xmlns="http://www.w3.org/2000/svg"><sfw xmlns="http://ns.adobe.com/SaveForWeb/1.0/"><slices><slicesourcebounds y="-8160" x="-8165" width="16389" height="16384" bottomleftorigin="true"></slicesourcebounds><optimizationsettings><targetsettings targetsettingsid="0" fileformat="PNG24Format"><png24format transparency="true" filtered="false" interlaced="false" nomattecolor="false" mattecolor=""></png24format></targetsettings></optimizationsettings></slices></sfw></metadata><g xmlns="http://www.w3.org/2000/svg"><g><path d="M32,23.999c-4.412,0-8,3.589-8,8s3.589,8,8,8s8-3.589,8-8S36.411,23.999,32,23.999z M32,36c-2.206,0-4-1.795-4-4    c0-2.206,1.794-4,4-4c2.206,0,4,1.794,4,4C36,34.205,34.205,36,32,36z"></path><path d="M32,14c-9.925,0-18,8.075-18,18s8.075,18,18,18s18-8.075,18-18S41.925,14,32,14z M32,46c-7.72,0-14-6.28-14-14    c0-7.72,6.28-14,14-14c7.72,0,14,6.28,14,14C46,39.72,39.72,46,32,46z"></path><path d="M32,6C17.663,6,6,17.663,6,32s11.664,26,26,26s26-11.664,26-26S46.336,6,32,6z M32,54c-12.131,0-22-9.869-22-22    c0-12.131,9.869-22,22-22c12.131,0,22,9.869,22,22C54,44.131,44.131,54,32,54z"></path></g></g></g><g id="SvgjsG8001" featureKey="fNbRbf-0" transform="matrix(2.805206376742264,0,0,2.805206376742264,114.38958323363556,0.5516196004721117)" fill="#111111"><path d="M17.12 6.220000000000001 l-0.98 2.64 l-5.12 0 l-4.9 13.14 l-3.64 0 l4.88 -13.14 l-5.36 0 l0.98 -2.64 l14.14 0 z M19.72 12.84 l5.66 0 l-0.98 2.64 l-5.66 0 l-1.44 3.86 l7.04 0 l-0.98 2.66 l-8.4 0 c-0.54 0 -1.1 -0.16 -1.4 -0.6 c-0.42 -0.6 -0.2 -1.26 0.02 -1.86 l4.14 -11.14 c0.24 -0.64 0.62 -1.18 1.08 -1.56 c0.54 -0.42 1.22 -0.62 2.02 -0.62 l8.18 0 l-0.98 2.64 l-6.82 0 z M29.580000000000002 19.34 l6.9 0 l-0.98 2.66 l-8.26 0 c-0.54 0 -1.1 -0.16 -1.4 -0.6 c-0.42 -0.6 -0.2 -1.26 0.02 -1.86 l4.14 -11.14 c0.24 -0.64 0.62 -1.18 1.08 -1.56 c0.54 -0.42 1.22 -0.62 2.02 -0.62 l6.14 0 c0.54 0 1.1 0.14 1.42 0.58 c0.42 0.6 0.18 1.26 -0.04 1.86 l-1.18 3.2 l-3.64 0 l1.1 -3 l-3.42 0 z M54.6 6.220000000000001 l-5.86 15.78 l-3.64 0 l2.38 -6.42 l-3.66 0 l-2.38 6.42 l-3.64 0 l4.86 -13.1 l-1.16 -2.68 l5.8 0 l-2.5 6.72 l3.66 0 l2.5 -6.72 l3.64 0 z M57.64000000000001 22 l-3.64 0 l5.04 -13.6 c0.24 -0.64 0.62 -1.18 1.08 -1.56 c0.54 -0.42 1.24 -0.62 2.04 -0.62 l8.64 0 l-5.86 15.78 l-3.64 0 l1.72 -4.66 l-3.64 0 z M62.52 8.86 l-2.16 5.82 l3.64 0 l2.18 -5.82 l-3.66 0 z M67.10000000000001 22 l4.86 -13.1 l-1.18 -2.68 l5.82 0 l-5.86 15.78 l-3.64 0 z M87.66 6.220000000000001 l3.46 0 l-5.88 15.78 l-3.64 0 l3.38 -9.1 l-4.48 4.5 l-1.06 -4.58 l-3.4 9.18 l-3.64 0 l5.86 -15.78 l2.98 0 l1.08 5.72 z"></path></g><g id="SvgjsG8002" featureKey="gqtJpI-0" transform="matrix(0.6468724512543369,0,0,0.6468724512543369,143.44750605529902,67.9768581790189)" fill="#bf1919"><path d="M2.4 6.220000000000001 l4.72 0 l-0.78 11.56 l5.42 -11.56 l3.96 0 l-0.68 11.56 l6.02 -11.56 l3.76 0 l-8.7 15.78 l-4.28 0 l0.74 -11.4 l-5.18 11.4 l-4.38 0 l0.5 -13.22 z M35.932 12.84 l5.66 0 l-0.98 2.64 l-5.66 0 l-1.44 3.86 l7.04 0 l-0.98 2.66 l-8.4 0 c-0.54 0 -1.1 -0.16 -1.4 -0.6 c-0.42 -0.6 -0.2 -1.26 0.02 -1.86 l4.14 -11.14 c0.24 -0.64 0.62 -1.18 1.08 -1.56 c0.54 -0.42 1.22 -0.62 2.02 -0.62 l8.18 0 l-0.98 2.64 l-6.82 0 z M65.676 22 l-3.64 0 l5.04 -13.6 c0.24 -0.64 0.62 -1.18 1.08 -1.56 c0.54 -0.42 1.24 -0.62 2.04 -0.62 l8.64 0 l-5.86 15.78 l-3.64 0 l1.72 -4.66 l-3.64 0 z M70.556 8.86 l-2.16 5.82 l3.64 0 l2.18 -5.82 l-3.66 0 z M83.848 22 l4.86 -13.1 l-1.18 -2.68 l5.82 0 l-5.86 15.78 l-3.64 0 z M113.12 6.220000000000001 l3.46 0 l-5.88 15.78 l-3.64 0 l3.38 -9.1 l-4.48 4.5 l-1.06 -4.58 l-3.4 9.18 l-3.64 0 l5.86 -15.78 l2.98 0 l1.08 5.72 z M152.324 6.220000000000001 l-0.98 2.64 l-5.12 0 l-4.9 13.14 l-3.64 0 l4.88 -13.14 l-5.36 0 l0.98 -2.64 l14.14 0 z M158.876 22 c-0.54 0 -1.1 -0.16 -1.4 -0.6 c-0.42 -0.6 -0.2 -1.26 0.02 -1.86 l4.14 -11.14 c0.24 -0.64 0.62 -1.18 1.08 -1.56 c0.54 -0.42 1.22 -0.62 2.02 -0.62 l6.92 0 c0.54 0 1.1 0.14 1.42 0.58 c0.42 0.6 0.18 1.26 -0.04 1.86 l-4.14 11.14 c-0.22 0.64 -0.6 1.18 -1.06 1.56 c-0.56 0.44 -1.24 0.64 -2.04 0.64 l-6.92 0 z M161.216 19.34 l4.22 0 l3.88 -10.48 l-4.2 0 z M195.60000000000005 10 l3.64 0 l-1.48 3.96 l1.96 0 c0.58 0 0.96 -0.1 1.22 -0.38 c0.24 -0.22 0.4 -0.54 0.56 -0.96 l1.4 -3.76 l-6.94 0 l-0.36 -2.64 l8.5 0 c0.88 0 1.92 -0.04 2.44 0.52 c0.32 0.36 0.42 0.94 0.06 1.94 l-1.72 4.6 c-0.46 1.26 -0.9 2.16 -1.64 2.7 c-0.56 0.42 -1.38 0.62 -2.48 0.62 l-3.98 0 l-2 5.4 l-3.64 0 z M222.21200000000002 6.220000000000001 l-4.88 13.12 l5.82 0 l-0.98 2.66 l-7.18 0 c-0.54 0 -1.1 -0.16 -1.4 -0.6 c-0.42 -0.6 -0.2 -1.26 0.02 -1.86 l3.96 -10.64 l-1.18 -2.68 l5.82 0 z M239.06400000000002 12.84 l5.66 0 l-0.98 2.64 l-5.66 0 l-1.44 3.86 l7.04 0 l-0.98 2.66 l-8.4 0 c-0.54 0 -1.1 -0.16 -1.4 -0.6 c-0.42 -0.6 -0.2 -1.26 0.02 -1.86 l4.14 -11.14 c0.24 -0.64 0.62 -1.18 1.08 -1.56 c0.54 -0.42 1.22 -0.62 2.02 -0.62 l8.18 0 l-0.98 2.64 l-6.82 0 z M256.496 22 l-3.64 0 l5.04 -13.6 c0.24 -0.64 0.62 -1.18 1.08 -1.56 c0.54 -0.42 1.24 -0.62 2.04 -0.62 l8.64 0 l-5.86 15.78 l-3.64 0 l1.72 -4.66 l-3.64 0 z M261.37600000000003 8.86 l-2.16 5.82 l3.64 0 l2.18 -5.82 l-3.66 0 z M281.32800000000003 12.440000000000001 l4.18 1.62 c1 0.4 1.82 1.24 1.12 3.14 l-0.96 2.6 c-0.24 0.64 -0.62 1.18 -1.08 1.56 c-0.54 0.44 -1.24 0.64 -2.04 0.64 l-7.88 0 l0.98 -2.66 l6.54 0 l1.06 -2.84 l-4.2 -1.62 c-1.22 -0.48 -1.74 -1.52 -1.2 -2.9 c0.7 -1.78 0.66 -1.8 1.32 -3.58 c0.24 -0.64 0.62 -1.18 1.08 -1.56 c0.54 -0.42 1.24 -0.62 2.04 -0.62 l5.96 0 c0.54 0 1.1 0.14 1.4 0.58 c0.42 0.6 0.2 1.26 -0.04 1.86 l-0.92 2.5 l-3.64 0 l0.86 -2.3 l-3.26 0 z M302.3 12.84 l5.66 0 l-0.98 2.64 l-5.66 0 l-1.44 3.86 l7.04 0 l-0.98 2.66 l-8.4 0 c-0.54 0 -1.1 -0.16 -1.4 -0.6 c-0.42 -0.6 -0.2 -1.26 0.02 -1.86 l4.14 -11.14 c0.24 -0.64 0.62 -1.18 1.08 -1.56 c0.54 -0.42 1.22 -0.62 2.02 -0.62 l8.18 0 l-0.98 2.64 l-6.82 0 z"></path></g>
			</g>
		</svg>
	